<svg width="90" height="67" viewBox="0 0 90 67" fill="none" xmlns="http://www.w3.org/2000/svg">
<path d="M4 -1H87V37.3374C87 49.1949 87 55.1236 83.2431 59.3776C79.4862 63.6316 73.9708 64.3186 62.9401 65.6927C56.8547 66.4508 50.5325 67.0103 45.1783 66.9999C40.0088 66.9897 33.9234 66.4447 28.04 65.7086C17.019 64.3298 11.5086 63.6403 7.75428 59.3871C4 55.1338 4 49.2075 4 37.3548V-1Z" fill="#CC506D"/>
<path d="M0.25 -6.75H89.75V34.9098C89.75 40.8579 89.7495 45.2943 89.285 48.7757C88.8216 52.2484 87.8995 54.7427 86.0743 56.8173C84.2474 58.8939 81.9701 60.1151 78.7494 60.9954C75.5189 61.8785 71.3632 62.4129 65.7883 63.1291C58.6224 64.0496 51.0038 64.762 44.6516 64.7498C38.5009 64.7381 31.1448 64.0424 24.1925 63.1451C18.622 62.4261 14.4697 61.8895 11.2417 61.0052C8.02371 60.1235 5.74821 58.9019 3.92271 56.8256C2.09902 54.7514 1.17768 52.258 0.714675 48.7867C0.250516 45.3067 0.25 40.8723 0.25 34.9269V-6.75Z" fill="url(#paint0_linear_694_12)" stroke="url(#paint1_linear_694_12)" stroke-width="0.5"/>
<defs>
<linearGradient id="paint0_linear_694_12" x1="47.7" y1="79.7562" x2="124.718" y2="32.3297" gradientUnits="userSpaceOnUse">
<stop stop-color="#FF7898"/>
<stop offset="1" stop-color="#FFB3C0"/>
</linearGradient>
<linearGradient id="paint1_linear_694_12" x1="0.920455" y1="65" x2="95.8383" y2="56.0281" gradientUnits="userSpaceOnUse">
<stop stop-color="#FFB6C3"/>
<stop offset="1" stop-color="#FB859B"/>
</linearGradient>
</defs>
</svg>
